<svg width="393" height="33" viewBox="0 0 393 33" fill="none" xmlns="http://www.w3.org/2000/svg">
<path d="M11.375 25.2527V22.5054H14.1223V25.2527H11.375ZM0.369629 25.2527V14.2554H3.125V25.2527H0.369629ZM11.375 17.0027V14.2554H14.1223V17.0027H11.375ZM5.87231 32.125V28H3.125V25.2527H5.87231V14.2554H3.125V11.5H5.87231V7.375H8.61963V11.5H11.375V14.2554H8.61963V25.2527H11.375V28H8.61963V32.125H5.87231Z" fill="black"/>
<path d="M23.75 28V17.0027H22.3723V14.2554H27.875V17.0027H26.4973V28H23.75ZM19.625 14.2554V11.5H22.3723V14.2554H19.625ZM27.875 14.2554V11.5H30.6223V14.2554H27.875ZM16.8696 11.5V4.62769H19.625V11.5H16.8696ZM30.6223 11.5V4.62769H33.3696V11.5H30.6223Z" fill="black"/>
<path d="M49.8616 14.2554V7.375H52.6089V14.2554H49.8616ZM36.1089 28V4.62769H49.8616V7.375H38.8643V14.2554H49.8616V17.0027H38.8643V28H36.1089Z" fill="black"/>
<path d="M55.3481 28V4.62769H58.1035V14.2554H69.1008V4.62769H71.8481V28H69.1008V17.0027H58.1035V28H55.3481Z" fill="black"/>
<path d="M80.0901 28V25.2527H91.0874V28H80.0901ZM77.3428 25.2527V19.75H74.5874V18.3804H75.9651V17.0027H77.3428V15.625H74.5874V14.2554H75.9651V12.8777H77.3428V7.375H80.0901V12.8777H86.9624V14.2554H85.5928V15.625H80.0901V17.0027H86.9624V18.3804H85.5928V19.75H80.0901V25.2527H77.3428ZM80.0901 7.375V4.62769H91.0874V7.375H80.0901Z" fill="black"/>
<path d="M107.579 28V25.2527H110.327V28H107.579ZM104.832 25.2527V22.5054H107.579V25.2527H104.832ZM102.077 22.5054V19.75H104.832V22.5054H102.077ZM107.579 14.2554V7.375H110.327V14.2554H107.579ZM93.8267 28V4.62769H107.579V7.375H96.582V14.2554H107.579V17.0027H102.077V19.75H99.3293V17.0027H96.582V28H93.8267Z" fill="black"/>
<path d="M206.523 28V4.62769H209.278V25.2527H220.276V28H206.523Z" fill="black"/>
<path d="M228.526 28V25.2527H239.523V28H228.526ZM225.778 25.2527V19.75H223.023V18.3804H224.401V17.0027H225.778V15.625H223.023V14.2554H224.401V12.8777H225.778V7.375H228.526V12.8777H235.398V14.2554H234.028V15.625H228.526V17.0027H235.398V18.3804H234.028V19.75H228.526V25.2527H225.778ZM228.526 7.375V4.62769H239.523V7.375H228.526Z" fill="black"/>
<path d="M245.018 28V25.2527H256.015V28H245.018ZM256.015 25.2527V17.0027H250.512V14.2554H258.762V25.2527H256.015ZM242.262 25.2527V7.375H245.018V25.2527H242.262ZM245.018 7.375V4.62769H257.393V7.375H245.018Z" fill="black"/>
<path d="M267.004 28V25.2527H278.001V28H267.004ZM264.257 25.2527V19.75H261.501V18.3804H262.879V17.0027H264.257V15.625H261.501V14.2554H262.879V12.8777H264.257V7.375H267.004V12.8777H273.876V14.2554H272.507V15.625H267.004V17.0027H273.876V18.3804H272.507V19.75H267.004V25.2527H264.257ZM267.004 7.375V4.62769H278.001V7.375H267.004Z" fill="black"/>
<path d="M288.991 18.3804V15.625H291.746V18.3804H288.991ZM286.243 15.625V12.8777H288.991V15.625H286.243ZM280.741 28V4.62769H283.496V10.1304H286.243V12.8777H283.496V28H280.741ZM294.493 28V21.1277H291.746V18.3804H294.493V4.62769H297.241V28H294.493Z" fill="black"/>
<path d="M310.985 25.2527V22.5054H313.733V25.2527H310.985ZM313.733 22.5054V10.1304H316.48V22.5054H313.733ZM310.985 10.1304V7.375H313.733V10.1304H310.985ZM299.98 28V4.62769H310.985V7.375H302.735V25.2527H310.985V28H299.98Z" fill="black"/>
<path d="M332.972 25.2527V17.0027H335.719V25.2527H332.972ZM319.219 14.2554V7.375H321.975V14.2554H319.219ZM326.1 32.125V28H320.597V25.2527H326.1V17.0027H321.975V14.2554H326.1V7.375H321.975V4.62769H326.1V0.502686H328.847V4.62769H334.35V7.375H328.847V14.2554H332.972V17.0027H328.847V25.2527H332.972V28H328.847V32.125H326.1Z" fill="black"/>
<path d="M126.819 14.2554V7.375H129.566V14.2554H126.819ZM113.066 28V4.62769H126.819V7.375H115.821V14.2554H126.819V17.0027H115.821V28H113.066Z" fill="#00FF37"/>
<path d="M135.061 28V25.2527H146.058V28H135.061ZM132.305 25.2527V4.62769H135.061V25.2527H132.305ZM146.058 25.2527V4.62769H148.805V25.2527H146.058Z" fill="#00FF37"/>
<path d="M159.794 18.3804V15.625H162.55V18.3804H159.794ZM157.047 15.625V12.8777H159.794V15.625H157.047ZM151.544 28V4.62769H154.3V10.1304H157.047V12.8777H154.3V28H151.544ZM165.297 28V21.1277H162.55V18.3804H165.297V4.62769H168.044V28H165.297Z" fill="#00FF37"/>
<path d="M181.789 28V21.1277H184.536V28H181.789ZM179.034 21.1277V17.0027H181.789V21.1277H179.034ZM179.034 14.2554V11.5H181.789V14.2554H179.034ZM170.784 28V4.62769H173.539V14.2554H179.034V17.0027H173.539V28H170.784ZM181.789 11.5V4.62769H184.536V11.5H181.789Z" fill="#00FF37"/>
<path d="M201.036 25.2527V17.0027H203.784V25.2527H201.036ZM187.284 14.2554V7.375H190.039V14.2554H187.284ZM194.164 32.125V28H188.661V25.2527H194.164V17.0027H190.039V14.2554H194.164V7.375H190.039V4.62769H194.164V0.502686H196.911V4.62769H202.414V7.375H196.911V14.2554H201.036V17.0027H196.911V25.2527H201.036V28H196.911V32.125H194.164Z" fill="#00FF37"/>
<path d="M338.458 28V25.2527H341.214V28H338.458Z" fill="#C2C2C2"/>
<path d="M346.725 28V25.2527H356.344V28H346.725ZM343.969 25.2527V14.2554H346.725V25.2527H343.969ZM346.725 14.2554V11.5H356.344V14.2554H346.725Z" fill="#C2C2C2"/>
<path d="M361.839 28V25.2527H370.089V28H361.839ZM359.083 25.2527V14.2554H361.839V25.2527H359.083ZM370.089 25.2527V14.2554H372.836V25.2527H370.089ZM361.839 14.2554V11.5H370.089V14.2554H361.839Z" fill="#C2C2C2"/>
<path d="M389.336 28V14.2554H392.083V28H389.336ZM375.583 28V11.5H389.336V14.2554H385.211V28H382.464V14.2554H378.339V28H375.583Z" fill="#C2C2C2"/>
</svg>
